<?xml version="1.0" encoding="UTF-8" standalone="no"?>
<svg
   version="1.1"
   id="Layer_1"
   x="0px"
   y="0px"
   width="150mm"
   viewBox="0 0 566.92913 340.15746"
   enable-background="new 0 0 342 290"
   xml:space="preserve"
   sodipodi:docname="file.svg"
   inkscape:version="1.4.2 (f4327f4, 2025-05-13)"
   height="90mm"
   xmlns:inkscape="http://www.inkscape.org/namespaces/inkscape"
   xmlns:sodipodi="http://sodipodi.sourceforge.net/DTD/sodipodi-0.dtd"
   xmlns="http://www.w3.org/2000/svg"
   xmlns:svg="http://www.w3.org/2000/svg"><defs
   id="defs37" /><sodipodi:namedview
   id="namedview37"
   pagecolor="#ffffff"
   bordercolor="#000000"
   borderopacity="0.25"
   inkscape:showpageshadow="2"
   inkscape:pageopacity="0.0"
   inkscape:pagecheckerboard="0"
   inkscape:deskcolor="#d1d1d1"
   inkscape:zoom="0.61323228"
   inkscape:cx="114.14924"
   inkscape:cy="69.304898"
   inkscape:window-width="1366"
   inkscape:window-height="705"
   inkscape:window-x="-8"
   inkscape:window-y="-8"
   inkscape:window-maximized="1"
   inkscape:current-layer="Layer_1"
   inkscape:document-units="mm" />
<path
   fill="#61b3d4"
   opacity="1"
   stroke="none"
   d="m 306.00977,239.64873 c -44.35364,0 -88.70729,0 -133.28114,-0.21147 11.25951,-14.41887 22.73921,-28.62625 34.21891,-42.83362 -0.22868,-0.30781 -0.45735,-0.61563 -0.68603,-0.92344 -1.51209,0 -3.02419,1.1e-4 -4.53627,-3e-5 -10.37876,-7.4e-4 -20.75935,-0.10938 -31.1352,0.0611 -3.23779,0.0531 -4.19546,-1.04232 -4.13491,-4.13283 0.16798,-8.57417 0.0728,-17.15362 0.0484,-25.7309 -0.004,-1.33443 -0.18186,-2.6684 -0.328,-4.6685 -9.40025,3.90442 -17.40232,8.95803 -25.50435,14.2514 -0.67992,0.3883 -1.12174,0.7828 -1.72099,1.33193 -0.53914,0.37435 -0.92084,0.59406 -1.4973,0.64676 -0.71738,-0.60547 -1.24002,-1.04395 -1.62447,-1.70804 1.49827,-1.78732 2.85834,-3.34902 4.44366,-4.97146 0.54422,-0.55049 0.86318,-1.04026 1.27246,-1.68431 0.23824,-0.34712 0.4202,-0.50088 0.89723,-0.65249 1.90311,-1.76117 3.54519,-3.48545 5.34269,-5.41113 4.87337,-3.88859 9.59133,-7.57579 14.54284,-11.27462 0.66155,-0.41558 1.08956,-0.81952 1.63652,-1.31838 0.11896,-0.0949 0.4014,-0.21141 0.63673,-0.21578 0.67612,-0.39711 1.1169,-0.7898 1.75627,-1.34241 1.51021,-0.92743 2.82182,-1.69495 4.3969,-2.45896 1.20772,-0.63537 2.15197,-1.2742 3.32923,-2.05784 31.17646,-16.61786 64.36441,-22.0144 99.24426,-19.78483 -9.86762,10.81579 -19.07776,21.8181 -26.14577,34.46874 24.97891,-12.1363 51.11265,-20.83111 77.98269,-29.66176 -19.24097,-19.31064 -41.8933,-31.035614 -67.18923,-38.586394 4.85695,8.11469 10.05289,15.898034 13.32597,24.901874 -0.99452,0.17654 -1.37162,0.3333 -1.72592,0.29349 -17.62403,-1.97999 -35.26848,-2.39757 -52.92905,-0.56586 -2.81084,0.29154 -3.17235,-1.08145 -3.15936,-3.31998 0.0599,-10.34325 -0.0461,-20.687894 0.0746,-31.030132 0.0324,-2.766189 -0.86526,-3.789095 -3.74015,-3.751181 -9.35217,0.123332 -18.71182,0.200922 -28.05893,-0.05118 -3.82141,-0.103065 -4.76824,1.262912 -4.72602,4.795213 0.16281,13.621386 0.0944,27.24605 0.005,40.86877 -0.009,1.3838 -0.30336,3.44688 -1.21972,4.0146 -2.6261,1.62693 -5.64025,2.64688 -8.78248,4.0289 -0.24338,-1.44388 -0.47275,-2.17255 -0.47349,-2.90142 -0.0197,-19.29958 0.025,-38.599414 -0.061,-57.898667 -0.0125,-2.802869 1.27003,-3.358371 3.74005,-3.341714 10.63468,0.07171 21.2702,0.03341 31.90537,0.0097 1.35254,-0.003 2.70476,-0.155529 4.8608,-0.288257 -1.10992,-1.634765 -1.71496,-2.678556 -2.46552,-3.608509 -10.12122,-12.54024 -20.28,-25.051378 -30.37438,-37.612688 -1.07324,-1.335522 -1.79884,-2.94178 -2.32938,-4.385714 44.18806,0.02304 88.01978,0.0093 132.02752,0.123836 0.57535,0.284886 0.97462,0.441587 1.5188,0.805664 1.86612,2.325819 3.58735,4.444264 5.33151,6.805553 0.69602,0.908681 1.36911,1.574518 2.1651,2.405138 0.38096,0.48512 0.63899,0.805454 0.92288,1.356195 0.45772,0.637136 0.88963,1.043858 1.46956,1.651847 1.6419,2.036094 3.13578,3.870922 4.65186,5.93723 0.4668,0.629672 0.9114,1.027865 1.47405,1.597134 0.38147,0.49321 0.64489,0.815346 0.92572,1.385451 0.90012,1.196587 1.78283,2.145212 2.78072,3.264374 0.38783,0.479511 0.66052,0.788485 0.96414,1.326936 0.46663,0.63576 0.90231,1.042042 1.45939,1.615338 0.38713,0.483551 0.65288,0.800081 0.93654,1.360387 0.68279,0.914673 1.34768,1.585572 2.14185,2.442244 0.60551,0.770859 1.08176,1.355947 1.58672,2.171112 0.47268,0.628907 0.91666,1.027734 1.47165,1.600125 0.36778,0.496087 0.62457,0.818613 0.90895,1.389359 0.93254,1.182766 1.83752,2.117308 2.85244,3.224462 0.36672,0.491699 0.62346,0.810797 0.91006,1.356821 0.4487,0.647105 0.86756,1.06728 1.41071,1.651299 0.40757,0.462956 0.69083,0.762069 1.03766,1.308714 0.80433,0.513675 1.54505,0.779819 2.63476,1.071312 15.95975,0.05189 31.5706,0.07844 47.28724,0.413623 0.2286,1.430378 0.45816,2.552072 0.45871,3.673871 0.0195,39.961844 -0.0211,79.923814 0.0851,119.885384 0.009,3.58623 -1.33234,4.51735 -4.7351,4.48336 -13.7019,-0.13691 -27.406,-0.0681 -41.10928,-0.0553 -2.32523,0.002 -4.75413,-0.0931 -5.69525,3.01756 -0.61562,0.76466 -1.07586,1.36375 -1.75951,2.03728 -0.5264,0.58429 -0.82944,1.09413 -1.29375,1.7633 -0.63014,0.75136 -1.09905,1.34339 -1.80242,2.0136 -0.75459,0.85741 -1.27471,1.63663 -1.93246,2.57277 -0.37973,0.49561 -0.6218,0.83433 -1.09146,1.24134 -0.53041,0.58114 -0.83324,1.09398 -1.27924,1.75486 -0.39948,0.46863 -0.65581,0.78925 -1.1507,1.19046 -0.97561,1.13662 -1.7127,2.19265 -2.5966,3.39972 -0.40056,0.48536 -0.65429,0.81974 -1.13612,1.21817 -0.53258,0.57356 -0.83704,1.08305 -1.30677,1.77722 -1.19083,1.48212 -2.21645,2.77945 -3.48221,4.15324 -0.97568,1.14221 -1.71122,2.20796 -2.59132,3.42141 -0.39271,0.4768 -0.64084,0.80591 -1.12597,1.21012 -0.76242,0.85582 -1.28782,1.63655 -1.98401,2.6018 -1.43076,1.74962 -2.69071,3.31468 -4.17382,4.95121 -0.52788,0.58326 -0.83254,1.09506 -1.30302,1.77688 -0.84741,1.04374 -1.52902,1.91749 -2.43438,2.85389 -0.56967,0.5437 -0.91557,1.02474 -1.2615,1.50579 m 38.49505,-86.66388 c 10e-4,9.4502 0.0872,18.90155 -0.0444,28.34999 -0.0412,2.94401 0.96205,3.97296 3.98949,3.9247 9.46929,-0.15094 18.94403,-0.1524 28.41346,-0.008 2.99312,0.0454 4.01724,-0.90622 4.01019,-3.88782 -0.0788,-33.3907 -0.0788,-66.78172 -5.1e-4,-100.172458 0.006,-2.980998 -1.03824,-3.944655 -4.01401,-3.901968 -9.21363,0.132146 -18.43536,0.208318 -27.64392,-0.04557 -3.72757,-0.102771 -4.8032,1.044878 -4.78126,4.675548 0.14162,23.435858 0.0718,46.872898 0.0711,71.066438 M 316.87416,52.965119 c -5.02345,-6.212937 -10.15122,-12.348187 -15.01603,-18.679242 -1.80052,-2.343207 -3.71932,-3.362647 -6.73763,-3.354137 -32.52583,0.09171 -65.052,0.06009 -97.57807,0.07965 -1.22078,7.34e-4 -2.44145,0.179305 -4.37481,0.330871 1.06691,1.590667 1.66778,2.652485 2.42592,3.591217 7.80772,9.667474 15.69915,19.270234 23.42077,29.003653 1.66569,2.099668 3.42353,2.966001 6.13325,2.959885 32.52592,-0.07343 65.05208,-0.04002 97.57817,-0.05332 1.33454,-5.43e-4 2.66902,-0.186443 4.95542,-0.356993 -3.86986,-4.852908 -7.16129,-8.980491 -10.80699,-13.521592 M 203.83776,217.42407 c -3.47485,4.36728 -6.9497,8.73454 -10.82828,13.60923 1.8223,0.23852 2.5609,0.4194 3.29959,0.41976 33.27796,0.0168 66.5561,0.0564 99.8334,-0.0907 1.7067,-0.007 3.90901,-1.225 5.0283,-2.56765 8.03503,-9.63881 15.85968,-19.44789 23.71795,-29.22875 0.79235,-0.98619 1.36424,-2.14407 2.24915,-3.55929 -1.4713,-0.15447 -2.22369,-0.30227 -2.97612,-0.3026 -33.278,-0.0135 -66.55615,-0.0475 -99.8336,0.0858 -1.61348,0.006 -3.68269,1.11482 -4.75292,2.36352 -5.27961,6.16006 -10.29385,12.54057 -15.73747,19.2706 m 3.28302,-32.20961 c 6.41906,-0.0164 6.42531,-0.0164 6.42271,-6.35124 -0.004,-9.43912 -0.005,-18.87825 -0.0421,-28.31727 -0.005,-1.3085 -0.20903,-2.61624 -0.32917,-4.02085 -0.96013,0 -1.48878,-0.11175 -1.9484,0.0164 -10.56347,2.94544 -21.14913,5.82262 -31.63399,9.01971 -1.13365,0.3457 -2.33552,2.55228 -2.3809,3.93153 -0.23991,7.29204 -0.0147,14.59779 -0.17486,21.89404 -0.0657,2.99284 1.05827,3.92776 4.02918,3.87575 8.43509,-0.14766 16.87461,-0.0499 26.05737,-0.0481 z"
   id="path1"
   style="stroke-width:0.762852" />




































<text
   xml:space="preserve"
   style="text-align:start;writing-mode:lr-tb;direction:ltr;text-anchor:start;fill:#000000;stroke:#1a1a1a;stroke-width:0.0944882"
   x="11.530815"
   y="242.72366"
   id="text37"><tspan
     sodipodi:role="line"
     id="tspan37"
     x="11.530815"
     y="242.72366" /></text><text
   xml:space="preserve"
   style="font-style:normal;font-variant:normal;font-weight:bold;font-stretch:normal;font-size:57.3333px;font-family:Sans;-inkscape-font-specification:'Sans, Bold';font-variant-ligatures:normal;font-variant-caps:normal;font-variant-numeric:normal;font-variant-east-asian:normal;text-align:start;writing-mode:lr-tb;direction:ltr;text-anchor:start;fill:#61b3d4;fill-opacity:1;stroke:#ffffff;stroke-width:0.0945349"
   x="8.7973814"
   y="258.16183"
   id="text1"
   transform="scale(0.81955269,1.2201778)"><tspan
     sodipodi:role="line"
     id="tspan1"
     x="8.7973814"
     y="258.16183"
     style="font-style:normal;font-variant:normal;font-weight:bold;font-stretch:normal;font-size:57.3333px;font-family:Sans;-inkscape-font-specification:'Sans, Bold';font-variant-ligatures:normal;font-variant-caps:normal;font-variant-numeric:normal;font-variant-east-asian:normal;stroke-width:0.0945349">TIMBOX - NENAGRAF</tspan></text></svg>
